<svg xmlns="http://www.w3.org/2000/svg" xmlns:xlink="http://www.w3.org/1999/xlink" viewBox="0 0 1000 1000" width="1000" height="1000" preserveAspectRatio="xMidYMid meet" style="width: 100%; height: 100%; transform: translate3d(0px, 0px, 0px); content-visibility: visible;"><defs><clipPath id="__lottie_element_326"><rect width="1000" height="1000" x="0" y="0"></rect></clipPath><clipPath id="__lottie_element_328"><path d="M0,0 L1000,0 L1000,1000 L0,1000z"></path></clipPath><filter id="__lottie_element_335"><feColorMatrix type="matrix" color-interpolation-filters="linearRGB" values="0.3333 0.3333 0.3333 0 0 0.3333 0.3333 0.3333 0 0 0.3333 0.3333 0.3333 0 0 0 0 0 1 0" result="filter_result_0_tint_1"></feColorMatrix><feColorMatrix type="matrix" color-interpolation-filters="sRGB" values="-0.2800000011920929 0 0 0 0.2800000011920929 -0.14960002899169922 0 0 0 0.628000020980835 0 0 0 0 1 0 0 0 1 0" result="filter_result_0_tint_2"></feColorMatrix><feMerge result="filter_result_0"><feMergeNode in="SourceGraphic"></feMergeNode><feMergeNode in="filter_result_0_tint_1"></feMergeNode><feMergeNode in="filter_result_0_tint_2"></feMergeNode></feMerge></filter><linearGradient id="__lottie_element_336" spreadMethod="pad" gradientUnits="userSpaceOnUse" x1="-394" y1="0" x2="365" y2="0"><stop offset="0%" stop-color="rgb(255,255,255)"></stop><stop offset="100%" stop-color="rgb(0,0,0)"></stop></linearGradient><g id="__lottie_element_332"><g transform="matrix(0.3192083239555359,-0.6235862374305725,-0.5647967457771301,-0.42754748463630676,500,500)" opacity="0.5" style="display: block;"><g opacity="1" transform="matrix(1,0,0,1,0,0)"><path fill="url(#__lottie_element_339)" fill-opacity="1" d=" M0,-500 C276.1419982910156,-500 500,-276.1419982910156 500,0 C500,276.1419982910156 276.1419982910156,500 0,500 C-276.1419982910156,500 -500,276.1419982910156 -500,0 C-500,-276.1419982910156 -276.1419982910156,-500 0,-500z"></path><g opacity="1" transform="matrix(1,0,0,1,0,0)"></g></g></g></g><linearGradient id="__lottie_element_339" spreadMethod="pad" gradientUnits="userSpaceOnUse" x1="-512.9749755859375" y1="2.5" x2="549.5889892578125" y2="-14.873000144958496"><stop offset="0%" stop-color="rgb(255,255,255)"></stop><stop offset="100%" stop-color="rgb(0,0,0)"></stop></linearGradient><filter id="__lottie_element_343"><feColorMatrix type="matrix" color-interpolation-filters="linearRGB" values="0.3333 0.3333 0.3333 0 0 0.3333 0.3333 0.3333 0 0 0.3333 0.3333 0.3333 0 0 0 0 0 1 0" result="filter_result_0_tint_1"></feColorMatrix><feColorMatrix type="matrix" color-interpolation-filters="sRGB" values="-0.2800000011920929 0 0 0 0.2800000011920929 -0.14960002899169922 0 0 0 0.628000020980835 0 0 0 0 1 0 0 0 1 0" result="filter_result_0_tint_2"></feColorMatrix><feMerge result="filter_result_0"><feMergeNode in="SourceGraphic"></feMergeNode><feMergeNode in="filter_result_0_tint_1"></feMergeNode><feMergeNode in="filter_result_0_tint_2"></feMergeNode></feMerge></filter><linearGradient id="__lottie_element_344" spreadMethod="pad" gradientUnits="userSpaceOnUse" x1="-394" y1="0" x2="365" y2="0"><stop offset="0%" stop-color="rgb(255,255,255)"></stop><stop offset="100%" stop-color="rgb(0,0,0)"></stop></linearGradient><g id="__lottie_element_340"><g transform="matrix(0.010344015434384346,-0.7903038263320923,0.5414019227027893,0.09802719950675964,500,500)" opacity="0.5" style="display: block;"><g opacity="1" transform="matrix(1,0,0,1,0,0)"><path fill="url(#__lottie_element_347)" fill-opacity="1" d=" M0,-500 C276.1419982910156,-500 500,-276.1419982910156 500,0 C500,276.1419982910156 276.1419982910156,500 0,500 C-276.1419982910156,500 -500,276.1419982910156 -500,0 C-500,-276.1419982910156 -276.1419982910156,-500 0,-500z"></path><g opacity="1" transform="matrix(1,0,0,1,0,0)"></g></g></g></g><linearGradient id="__lottie_element_347" spreadMethod="pad" gradientUnits="userSpaceOnUse" x1="-512.9749755859375" y1="2.5" x2="549.5889892578125" y2="-14.873000144958496"><stop offset="0%" stop-color="rgb(255,255,255)"></stop><stop offset="100%" stop-color="rgb(0,0,0)"></stop></linearGradient><filter id="__lottie_element_351"><feColorMatrix type="matrix" color-interpolation-filters="linearRGB" values="0.3333 0.3333 0.3333 0 0 0.3333 0.3333 0.3333 0 0 0.3333 0.3333 0.3333 0 0 0 0 0 1 0" result="filter_result_0_tint_1"></feColorMatrix><feColorMatrix type="matrix" color-interpolation-filters="sRGB" values="-0.2800000011920929 0 0 0 0.2800000011920929 -0.14960002899169922 0 0 0 0.628000020980835 0 0 0 0 1 0 0 0 1 0" result="filter_result_0_tint_2"></feColorMatrix><feMerge result="filter_result_0"><feMergeNode in="SourceGraphic"></feMergeNode><feMergeNode in="filter_result_0_tint_1"></feMergeNode><feMergeNode in="filter_result_0_tint_2"></feMergeNode></feMerge></filter><linearGradient id="__lottie_element_352" spreadMethod="pad" gradientUnits="userSpaceOnUse" x1="-394" y1="0" x2="365" y2="0"><stop offset="0%" stop-color="rgb(255,255,255)"></stop><stop offset="100%" stop-color="rgb(0,0,0)"></stop></linearGradient><g id="__lottie_element_348"><g transform="matrix(0.4785071909427643,-0.4721219837665558,-0.6396182179450989,-0.38855722546577454,500,500)" opacity="0.5" style="display: block;"><g opacity="1" transform="matrix(1,0,0,1,0,0)"><path fill="url(#__lottie_element_355)" fill-opacity="1" d=" M0,-500 C276.1419982910156,-500 500,-276.1419982910156 500,0 C500,276.1419982910156 276.1419982910156,500 0,500 C-276.1419982910156,500 -500,276.1419982910156 -500,0 C-500,-276.1419982910156 -276.1419982910156,-500 0,-500z"></path><g opacity="1" transform="matrix(1,0,0,1,0,0)"></g></g></g></g><linearGradient id="__lottie_element_355" spreadMethod="pad" gradientUnits="userSpaceOnUse" x1="-512.9749755859375" y1="2.5" x2="549.5889892578125" y2="-14.873000144958496"><stop offset="0%" stop-color="rgb(255,255,255)"></stop><stop offset="100%" stop-color="rgb(0,0,0)"></stop></linearGradient><filter id="__lottie_element_359"><feColorMatrix type="matrix" color-interpolation-filters="linearRGB" values="0.3333 0.3333 0.3333 0 0 0.3333 0.3333 0.3333 0 0 0.3333 0.3333 0.3333 0 0 0 0 0 1 0" result="filter_result_0_tint_1"></feColorMatrix><feColorMatrix type="matrix" color-interpolation-filters="sRGB" values="-0.2800000011920929 0 0 0 0.2800000011920929 -0.14960002899169922 0 0 0 0.628000020980835 0 0 0 0 1 0 0 0 1 0" result="filter_result_0_tint_2"></feColorMatrix><feMerge result="filter_result_0"><feMergeNode in="SourceGraphic"></feMergeNode><feMergeNode in="filter_result_0_tint_1"></feMergeNode><feMergeNode in="filter_result_0_tint_2"></feMergeNode></feMerge></filter><linearGradient id="__lottie_element_360" spreadMethod="pad" gradientUnits="userSpaceOnUse" x1="-394" y1="0" x2="365" y2="0"><stop offset="0%" stop-color="rgb(255,255,255)"></stop><stop offset="100%" stop-color="rgb(0,0,0)"></stop></linearGradient><g id="__lottie_element_356"><g transform="matrix(-0.2829410135746002,-0.4797237813472748,-0.6076804995536804,0.3075138330459595,500,500)" opacity="0.5" style="display: block;"><g opacity="1" transform="matrix(1,0,0,1,0,0)"><path fill="url(#__lottie_element_363)" fill-opacity="1" d=" M0,-500 C276.1419982910156,-500 500,-276.1419982910156 500,0 C500,276.1419982910156 276.1419982910156,500 0,500 C-276.1419982910156,500 -500,276.1419982910156 -500,0 C-500,-276.1419982910156 -276.1419982910156,-500 0,-500z"></path><g opacity="1" transform="matrix(1,0,0,1,0,0)"></g></g></g></g><linearGradient id="__lottie_element_363" spreadMethod="pad" gradientUnits="userSpaceOnUse" x1="-512.9749755859375" y1="2.5" x2="549.5889892578125" y2="-14.873000144958496"><stop offset="0%" stop-color="rgb(255,255,255)"></stop><stop offset="100%" stop-color="rgb(0,0,0)"></stop></linearGradient><g id="__lottie_element_364"><g filter="url(#__lottie_element_369)" transform="matrix(0.09589142352342606,-0.10787947475910187,-0.09587317705154419,-0.10398375988006592,500,500)" opacity="0.5" style="display: block;"><path fill="url(#__lottie_element_370)" fill-opacity="1" d=" M0,-500 C276.1419982910156,-500 500,-276.1419982910156 500,0 C500,276.1419982910156 276.1419982910156,500 0,500 C-276.1419982910156,500 -500,276.1419982910156 -500,0 C-500,-276.1419982910156 -276.1419982910156,-500 0,-500z"></path><g opacity="1" transform="matrix(1,0,0,1,0,0)"><g opacity="1" transform="matrix(1,0,0,1,0,0)"></g></g></g></g><filter id="__lottie_element_369"><feColorMatrix type="matrix" color-interpolation-filters="linearRGB" values="0.3333 0.3333 0.3333 0 0 0.3333 0.3333 0.3333 0 0 0.3333 0.3333 0.3333 0 0 0 0 0 1 0" result="filter_result_0_tint_1"></feColorMatrix><feColorMatrix type="matrix" color-interpolation-filters="sRGB" values="1 0 0 0 0 1 0 0 0 0 1 0 0 0 0 0 0 0 1 0" result="filter_result_0_tint_2"></feColorMatrix><feMerge result="filter_result_0"><feMergeNode in="SourceGraphic"></feMergeNode><feMergeNode in="filter_result_0_tint_1"></feMergeNode><feMergeNode in="filter_result_0_tint_2"></feMergeNode></feMerge></filter><radialGradient id="__lottie_element_370" spreadMethod="pad" gradientUnits="userSpaceOnUse" cx="10" cy="0" r="421" fx="10" fy="0"><stop offset="0%" stop-color="rgb(255,255,255)"></stop><stop offset="100%" stop-color="rgb(0,0,0)"></stop></radialGradient><g id="__lottie_element_371"><g filter="url(#__lottie_element_376)" transform="matrix(0.2237892746925354,-0.25176674127578735,-0.22374670207500458,-0.24267499148845673,500,500)" opacity="0.5" style="display: block;"><path fill="url(#__lottie_element_377)" fill-opacity="1" d=" M0,-500 C276.1419982910156,-500 500,-276.1419982910156 500,0 C500,276.1419982910156 276.1419982910156,500 0,500 C-276.1419982910156,500 -500,276.1419982910156 -500,0 C-500,-276.1419982910156 -276.1419982910156,-500 0,-500z"></path><g opacity="1" transform="matrix(1,0,0,1,0,0)"><g opacity="1" transform="matrix(1,0,0,1,0,0)"></g></g></g></g><filter id="__lottie_element_376"><feColorMatrix type="matrix" color-interpolation-filters="linearRGB" values="0.3333 0.3333 0.3333 0 0 0.3333 0.3333 0.3333 0 0 0.3333 0.3333 0.3333 0 0 0 0 0 1 0" result="filter_result_0_tint_1"></feColorMatrix><feColorMatrix type="matrix" color-interpolation-filters="sRGB" values="1 0 0 0 0 1 0 0 0 0 1 0 0 0 0 0 0 0 1 0" result="filter_result_0_tint_2"></feColorMatrix><feMerge result="filter_result_0"><feMergeNode in="SourceGraphic"></feMergeNode><feMergeNode in="filter_result_0_tint_1"></feMergeNode><feMergeNode in="filter_result_0_tint_2"></feMergeNode></feMerge></filter><radialGradient id="__lottie_element_377" spreadMethod="pad" gradientUnits="userSpaceOnUse" cx="10" cy="0" r="421" fx="10" fy="0"><stop offset="0%" stop-color="rgb(255,255,255)"></stop><stop offset="100%" stop-color="rgb(0,0,0)"></stop></radialGradient><g id="__lottie_element_378"><g filter="url(#__lottie_element_383)" transform="matrix(0.4820806682109833,-0.5423489809036255,-0.4819889962673187,-0.5227637887001038,500,500)" opacity="0.5" style="display: block;"><path fill="url(#__lottie_element_384)" fill-opacity="1" d=" M0,-500 C276.1419982910156,-500 500,-276.1419982910156 500,0 C500,276.1419982910156 276.1419982910156,500 0,500 C-276.1419982910156,500 -500,276.1419982910156 -500,0 C-500,-276.1419982910156 -276.1419982910156,-500 0,-500z"></path><g opacity="1" transform="matrix(1,0,0,1,0,0)"><g opacity="1" transform="matrix(1,0,0,1,0,0)"></g></g></g></g><filter id="__lottie_element_383"><feColorMatrix type="matrix" color-interpolation-filters="linearRGB" values="0.3333 0.3333 0.3333 0 0 0.3333 0.3333 0.3333 0 0 0.3333 0.3333 0.3333 0 0 0 0 0 1 0" result="filter_result_0_tint_1"></feColorMatrix><feColorMatrix type="matrix" color-interpolation-filters="sRGB" values="1 0 0 0 0 1 0 0 0 0 1 0 0 0 0 0 0 0 1 0" result="filter_result_0_tint_2"></feColorMatrix><feMerge result="filter_result_0"><feMergeNode in="SourceGraphic"></feMergeNode><feMergeNode in="filter_result_0_tint_1"></feMergeNode><feMergeNode in="filter_result_0_tint_2"></feMergeNode></feMerge></filter><radialGradient id="__lottie_element_384" spreadMethod="pad" gradientUnits="userSpaceOnUse" cx="10" cy="0" r="421" fx="10" fy="0"><stop offset="0%" stop-color="rgb(255,255,255)"></stop><stop offset="100%" stop-color="rgb(0,0,0)"></stop></radialGradient><filter id="__lottie_element_388"><feColorMatrix type="matrix" color-interpolation-filters="linearRGB" values="0.3333 0.3333 0.3333 0 0 0.3333 0.3333 0.3333 0 0 0.3333 0.3333 0.3333 0 0 0 0 0 1 0" result="filter_result_0_tint_1"></feColorMatrix><feColorMatrix type="matrix" color-interpolation-filters="sRGB" values="-0.2800000011920929 0 0 0 0.2800000011920929 -0.14960002899169922 0 0 0 0.628000020980835 0 0 0 0 1 0 0 0 1 0" result="filter_result_0_tint_2"></feColorMatrix><feMerge result="filter_result_0"><feMergeNode in="SourceGraphic"></feMergeNode><feMergeNode in="filter_result_0_tint_1"></feMergeNode><feMergeNode in="filter_result_0_tint_2"></feMergeNode></feMerge></filter><linearGradient id="__lottie_element_389" spreadMethod="pad" gradientUnits="userSpaceOnUse" x1="-394" y1="0" x2="365" y2="0"><stop offset="0%" stop-color="rgb(255,255,255)"></stop><stop offset="100%" stop-color="rgb(0,0,0)"></stop></linearGradient><g id="__lottie_element_385"><g transform="matrix(-0.48258447647094727,0.22438180446624756,0.287376344203949,0.7450776696205139,500,500)" opacity="0.5" style="display: block;"><g opacity="1" transform="matrix(1,0,0,1,0,0)"><path fill="url(#__lottie_element_392)" fill-opacity="1" d=" M0,-500 C276.1419982910156,-500 500,-276.1419982910156 500,0 C500,276.1419982910156 276.1419982910156,500 0,500 C-276.1419982910156,500 -500,276.1419982910156 -500,0 C-500,-276.1419982910156 -276.1419982910156,-500 0,-500z"></path><g opacity="1" transform="matrix(1,0,0,1,0,0)"></g></g></g></g><linearGradient id="__lottie_element_392" spreadMethod="pad" gradientUnits="userSpaceOnUse" x1="-512.9749755859375" y1="2.5" x2="549.5889892578125" y2="-14.873000144958496"><stop offset="0%" stop-color="rgb(255,255,255)"></stop><stop offset="100%" stop-color="rgb(0,0,0)"></stop></linearGradient><filter id="__lottie_element_396"><feColorMatrix type="matrix" color-interpolation-filters="linearRGB" values="0.3333 0.3333 0.3333 0 0 0.3333 0.3333 0.3333 0 0 0.3333 0.3333 0.3333 0 0 0 0 0 1 0" result="filter_result_0_tint_1"></feColorMatrix><feColorMatrix type="matrix" color-interpolation-filters="sRGB" values="-0.2800000011920929 0 0 0 0.2800000011920929 -0.14960002899169922 0 0 0 0.628000020980835 0 0 0 0 1 0 0 0 1 0" result="filter_result_0_tint_2"></feColorMatrix><feMerge result="filter_result_0"><feMergeNode in="SourceGraphic"></feMergeNode><feMergeNode in="filter_result_0_tint_1"></feMergeNode><feMergeNode in="filter_result_0_tint_2"></feMergeNode></feMerge></filter><linearGradient id="__lottie_element_397" spreadMethod="pad" gradientUnits="userSpaceOnUse" x1="-394" y1="0" x2="365" y2="0"><stop offset="0%" stop-color="rgb(255,255,255)"></stop><stop offset="100%" stop-color="rgb(0,0,0)"></stop></linearGradient><g id="__lottie_element_393"><g transform="matrix(-0.4023699462413788,-0.5764626264572144,-0.569843590259552,0.39838361740112305,500,500)" opacity="0.5" style="display: block;"><g opacity="1" transform="matrix(1,0,0,1,0,0)"><path fill="url(#__lottie_element_400)" fill-opacity="1" d=" M0,-500 C276.1419982910156,-500 500,-276.1419982910156 500,0 C500,276.1419982910156 276.1419982910156,500 0,500 C-276.1419982910156,500 -500,276.1419982910156 -500,0 C-500,-276.1419982910156 -276.1419982910156,-500 0,-500z"></path><g opacity="1" transform="matrix(1,0,0,1,0,0)"></g></g></g></g><linearGradient id="__lottie_element_400" spreadMethod="pad" gradientUnits="userSpaceOnUse" x1="-512.9749755859375" y1="2.5" x2="549.5889892578125" y2="-14.873000144958496"><stop offset="0%" stop-color="rgb(255,255,255)"></stop><stop offset="100%" stop-color="rgb(0,0,0)"></stop></linearGradient><filter id="__lottie_element_404"><feColorMatrix type="matrix" color-interpolation-filters="linearRGB" values="0.3333 0.3333 0.3333 0 0 0.3333 0.3333 0.3333 0 0 0.3333 0.3333 0.3333 0 0 0 0 0 1 0" result="filter_result_0_tint_1"></feColorMatrix><feColorMatrix type="matrix" color-interpolation-filters="sRGB" values="-0.2800000011920929 0 0 0 0.2800000011920929 -0.14960002899169922 0 0 0 0.628000020980835 0 0 0 0 1 0 0 0 1 0" result="filter_result_0_tint_2"></feColorMatrix><feMerge result="filter_result_0"><feMergeNode in="SourceGraphic"></feMergeNode><feMergeNode in="filter_result_0_tint_1"></feMergeNode><feMergeNode in="filter_result_0_tint_2"></feMergeNode></feMerge></filter><linearGradient id="__lottie_element_405" spreadMethod="pad" gradientUnits="userSpaceOnUse" x1="-394" y1="0" x2="365" y2="0"><stop offset="0%" stop-color="rgb(255,255,255)"></stop><stop offset="100%" stop-color="rgb(0,0,0)"></stop></linearGradient><g id="__lottie_element_401"><g transform="matrix(-0.4383504390716553,-0.6331977844238281,-0.586620569229126,0.3595186769962311,500,500)" opacity="0.5" style="display: block;"><g opacity="1" transform="matrix(1,0,0,1,0,0)"><path fill="url(#__lottie_element_408)" fill-opacity="1" d=" M0,-500 C276.1419982910156,-500 500,-276.1419982910156 500,0 C500,276.1419982910156 276.1419982910156,500 0,500 C-276.1419982910156,500 -500,276.1419982910156 -500,0 C-500,-276.1419982910156 -276.1419982910156,-500 0,-500z"></path><g opacity="1" transform="matrix(1,0,0,1,0,0)"></g></g></g></g><linearGradient id="__lottie_element_408" spreadMethod="pad" gradientUnits="userSpaceOnUse" x1="-512.9749755859375" y1="2.5" x2="549.5889892578125" y2="-14.873000144958496"><stop offset="0%" stop-color="rgb(255,255,255)"></stop><stop offset="100%" stop-color="rgb(0,0,0)"></stop></linearGradient><filter id="__lottie_element_412"><feColorMatrix type="matrix" color-interpolation-filters="linearRGB" values="0.3333 0.3333 0.3333 0 0 0.3333 0.3333 0.3333 0 0 0.3333 0.3333 0.3333 0 0 0 0 0 1 0" result="filter_result_0_tint_1"></feColorMatrix><feColorMatrix type="matrix" color-interpolation-filters="sRGB" values="-0.2800000011920929 0 0 0 0.2800000011920929 -0.14960002899169922 0 0 0 0.628000020980835 0 0 0 0 1 0 0 0 1 0" result="filter_result_0_tint_2"></feColorMatrix><feMerge result="filter_result_0"><feMergeNode in="SourceGraphic"></feMergeNode><feMergeNode in="filter_result_0_tint_1"></feMergeNode><feMergeNode in="filter_result_0_tint_2"></feMergeNode></feMerge></filter><linearGradient id="__lottie_element_413" spreadMethod="pad" gradientUnits="userSpaceOnUse" x1="-394" y1="0" x2="365" y2="0"><stop offset="0%" stop-color="rgb(255,255,255)"></stop><stop offset="100%" stop-color="rgb(0,0,0)"></stop></linearGradient><g id="__lottie_element_409"><g transform="matrix(0.5199111700057983,-0.1719827950000763,-0.37964189052581787,-0.4722647964954376,500,500)" opacity="0.5" style="display: block;"><g opacity="1" transform="matrix(1,0,0,1,0,0)"><path fill="url(#__lottie_element_416)" fill-opacity="1" d=" M0,-500 C276.1419982910156,-500 500,-276.1419982910156 500,0 C500,276.1419982910156 276.1419982910156,500 0,500 C-276.1419982910156,500 -500,276.1419982910156 -500,0 C-500,-276.1419982910156 -276.1419982910156,-500 0,-500z"></path><g opacity="1" transform="matrix(1,0,0,1,0,0)"></g></g></g></g><linearGradient id="__lottie_element_416" spreadMethod="pad" gradientUnits="userSpaceOnUse" x1="-512.9749755859375" y1="2.5" x2="549.5889892578125" y2="-14.873000144958496"><stop offset="0%" stop-color="rgb(255,255,255)"></stop><stop offset="100%" stop-color="rgb(0,0,0)"></stop></linearGradient><filter id="__lottie_element_420"><feColorMatrix type="matrix" color-interpolation-filters="linearRGB" values="0.3333 0.3333 0.3333 0 0 0.3333 0.3333 0.3333 0 0 0.3333 0.3333 0.3333 0 0 0 0 0 1 0" result="filter_result_0_tint_1"></feColorMatrix><feColorMatrix type="matrix" color-interpolation-filters="sRGB" values="-0.2800000011920929 0 0 0 0.2800000011920929 -0.14960002899169922 0 0 0 0.628000020980835 0 0 0 0 1 0 0 0 1 0" result="filter_result_0_tint_2"></feColorMatrix><feMerge result="filter_result_0"><feMergeNode in="SourceGraphic"></feMergeNode><feMergeNode in="filter_result_0_tint_1"></feMergeNode><feMergeNode in="filter_result_0_tint_2"></feMergeNode></feMerge></filter><linearGradient id="__lottie_element_421" spreadMethod="pad" gradientUnits="userSpaceOnUse" x1="-394" y1="0" x2="365" y2="0"><stop offset="0%" stop-color="rgb(255,255,255)"></stop><stop offset="100%" stop-color="rgb(0,0,0)"></stop></linearGradient><g id="__lottie_element_417"><g transform="matrix(-0.08877713233232498,-0.5133979916572571,0.14140604436397552,-0.40035298466682434,500,500)" opacity="0.5" style="display: block;"><g opacity="1" transform="matrix(1,0,0,1,0,0)"><path fill="url(#__lottie_element_424)" fill-opacity="1" d=" M0,-500 C276.1419982910156,-500 500,-276.1419982910156 500,0 C500,276.1419982910156 276.1419982910156,500 0,500 C-276.1419982910156,500 -500,276.1419982910156 -500,0 C-500,-276.1419982910156 -276.1419982910156,-500 0,-500z"></path><g opacity="1" transform="matrix(1,0,0,1,0,0)"></g></g></g></g><linearGradient id="__lottie_element_424" spreadMethod="pad" gradientUnits="userSpaceOnUse" x1="-512.9749755859375" y1="2.5" x2="549.5889892578125" y2="-14.873000144958496"><stop offset="0%" stop-color="rgb(255,255,255)"></stop><stop offset="100%" stop-color="rgb(0,0,0)"></stop></linearGradient><filter id="__lottie_element_428"><feColorMatrix type="matrix" color-interpolation-filters="linearRGB" values="0.3333 0.3333 0.3333 0 0 0.3333 0.3333 0.3333 0 0 0.3333 0.3333 0.3333 0 0 0 0 0 1 0" result="filter_result_0_tint_1"></feColorMatrix><feColorMatrix type="matrix" color-interpolation-filters="sRGB" values="-0.2800000011920929 0 0 0 0.2800000011920929 -0.14960002899169922 0 0 0 0.628000020980835 0 0 0 0 1 0 0 0 1 0" result="filter_result_0_tint_2"></feColorMatrix><feMerge result="filter_result_0"><feMergeNode in="SourceGraphic"></feMergeNode><feMergeNode in="filter_result_0_tint_1"></feMergeNode><feMergeNode in="filter_result_0_tint_2"></feMergeNode></feMerge></filter><linearGradient id="__lottie_element_429" spreadMethod="pad" gradientUnits="userSpaceOnUse" x1="-394" y1="0" x2="365" y2="0"><stop offset="0%" stop-color="rgb(255,255,255)"></stop><stop offset="100%" stop-color="rgb(0,0,0)"></stop></linearGradient><g id="__lottie_element_425"><g transform="matrix(0.7180880904197693,-0.2905942499637604,0.28453537821769714,0.20976431667804718,500,500)" opacity="0.5" style="display: block;"><g opacity="1" transform="matrix(1,0,0,1,0,0)"><path fill="url(#__lottie_element_432)" fill-opacity="1" d=" M0,-500 C276.1419982910156,-500 500,-276.1419982910156 500,0 C500,276.1419982910156 276.1419982910156,500 0,500 C-276.1419982910156,500 -500,276.1419982910156 -500,0 C-500,-276.1419982910156 -276.1419982910156,-500 0,-500z"></path><g opacity="1" transform="matrix(1,0,0,1,0,0)"></g></g></g></g><linearGradient id="__lottie_element_432" spreadMethod="pad" gradientUnits="userSpaceOnUse" x1="-512.9749755859375" y1="2.5" x2="549.5889892578125" y2="-14.873000144958496"><stop offset="0%" stop-color="rgb(255,255,255)"></stop><stop offset="100%" stop-color="rgb(0,0,0)"></stop></linearGradient><mask id="__lottie_element_425_3" mask-type="luminance"><use xlink:href="#__lottie_element_425"></use></mask><mask id="__lottie_element_417_3" mask-type="luminance"><use xlink:href="#__lottie_element_417"></use></mask><mask id="__lottie_element_409_3" mask-type="luminance"><use xlink:href="#__lottie_element_409"></use></mask><mask id="__lottie_element_401_3" mask-type="luminance"><use xlink:href="#__lottie_element_401"></use></mask><mask id="__lottie_element_393_3" mask-type="luminance"><use xlink:href="#__lottie_element_393"></use></mask><mask id="__lottie_element_385_3" mask-type="luminance"><use xlink:href="#__lottie_element_385"></use></mask><mask id="__lottie_element_378_3" mask-type="luminance"><use xlink:href="#__lottie_element_378"></use></mask><mask id="__lottie_element_371_3" mask-type="luminance"><use xlink:href="#__lottie_element_371"></use></mask><mask id="__lottie_element_364_3" mask-type="luminance"><use xlink:href="#__lottie_element_364"></use></mask><mask id="__lottie_element_356_3" mask-type="luminance"><use xlink:href="#__lottie_element_356"></use></mask><mask id="__lottie_element_348_3" mask-type="luminance"><use xlink:href="#__lottie_element_348"></use></mask><mask id="__lottie_element_340_3" mask-type="luminance"><use xlink:href="#__lottie_element_340"></use></mask><mask id="__lottie_element_332_3" mask-type="luminance"><use xlink:href="#__lottie_element_332"></use></mask></defs><g clip-path="url(#__lottie_element_326)"><g clip-path="url(#__lottie_element_328)" transform="matrix(-0.7835822105407715,-0.6212881207466125,0.6212881207466125,-0.7835822105407715,581.1470336914062,1202.4351806640625)" opacity="1" style="display: block;"><g mask="url(#__lottie_element_425_3)" style="mix-blend-mode: color-burn; display: block;"><g filter="url(#__lottie_element_428)" transform="matrix(0.7091107368469238,-0.28696128726005554,0.28097817301750183,0.20714189112186432,500,500)" opacity="0.5"><path fill="url(#__lottie_element_429)" fill-opacity="1" d=" M0,-500 C276.1419982910156,-500 500,-276.1419982910156 500,0 C500,276.1419982910156 276.1419982910156,500 0,500 C-276.1419982910156,500 -500,276.1419982910156 -500,0 C-500,-276.1419982910156 -276.1419982910156,-500 0,-500z"></path><g opacity="1" transform="matrix(1,0,0,1,0,0)"><g opacity="1" transform="matrix(1,0,0,1,0,0)"></g></g></g></g><g mask="url(#__lottie_element_417_3)" style="mix-blend-mode: color-burn; display: block;"><g filter="url(#__lottie_element_420)" transform="matrix(-0.08766727149486542,-0.5069795846939087,0.1396382451057434,-0.39534786343574524,500,500)" opacity="0.5"><path fill="url(#__lottie_element_421)" fill-opacity="1" d=" M0,-500 C276.1419982910156,-500 500,-276.1419982910156 500,0 C500,276.1419982910156 276.1419982910156,500 0,500 C-276.1419982910156,500 -500,276.1419982910156 -500,0 C-500,-276.1419982910156 -276.1419982910156,-500 0,-500z"></path><g opacity="1" transform="matrix(1,0,0,1,0,0)"><g opacity="1" transform="matrix(1,0,0,1,0,0)"></g></g></g></g><g mask="url(#__lottie_element_409_3)" style="mix-blend-mode: color-burn; display: block;"><g filter="url(#__lottie_element_412)" transform="matrix(0.5134114027023315,-0.1698327213525772,-0.37489572167396545,-0.4663606882095337,500,500)" opacity="0.5"><path fill="url(#__lottie_element_413)" fill-opacity="1" d=" M0,-500 C276.1419982910156,-500 500,-276.1419982910156 500,0 C500,276.1419982910156 276.1419982910156,500 0,500 C-276.1419982910156,500 -500,276.1419982910156 -500,0 C-500,-276.1419982910156 -276.1419982910156,-500 0,-500z"></path><g opacity="1" transform="matrix(1,0,0,1,0,0)"><g opacity="1" transform="matrix(1,0,0,1,0,0)"></g></g></g></g><g mask="url(#__lottie_element_401_3)" style="mix-blend-mode: color-burn; display: block;"><g filter="url(#__lottie_element_404)" transform="matrix(-0.4328702986240387,-0.6252816915512085,-0.5792868137359619,0.3550240695476532,500,500)" opacity="0.5"><path fill="url(#__lottie_element_405)" fill-opacity="1" d=" M0,-500 C276.1419982910156,-500 500,-276.1419982910156 500,0 C500,276.1419982910156 276.1419982910156,500 0,500 C-276.1419982910156,500 -500,276.1419982910156 -500,0 C-500,-276.1419982910156 -276.1419982910156,-500 0,-500z"></path><g opacity="1" transform="matrix(1,0,0,1,0,0)"><g opacity="1" transform="matrix(1,0,0,1,0,0)"></g></g></g></g><g mask="url(#__lottie_element_393_3)" style="mix-blend-mode: color-burn; display: block;"><g filter="url(#__lottie_element_396)" transform="matrix(-0.3973396122455597,-0.5692558288574219,-0.5627195239067078,0.39340314269065857,500,500)" opacity="0.5"><path fill="url(#__lottie_element_397)" fill-opacity="1" d=" M0,-500 C276.1419982910156,-500 500,-276.1419982910156 500,0 C500,276.1419982910156 276.1419982910156,500 0,500 C-276.1419982910156,500 -500,276.1419982910156 -500,0 C-500,-276.1419982910156 -276.1419982910156,-500 0,-500z"></path><g opacity="1" transform="matrix(1,0,0,1,0,0)"><g opacity="1" transform="matrix(1,0,0,1,0,0)"></g></g></g></g><g mask="url(#__lottie_element_385_3)" style="mix-blend-mode: color-burn; display: block;"><g filter="url(#__lottie_element_388)" transform="matrix(-0.4765513241291046,0.22157663106918335,0.28378361463546753,0.735762894153595,500,500)" opacity="0.5"><path fill="url(#__lottie_element_389)" fill-opacity="1" d=" M0,-500 C276.1419982910156,-500 500,-276.1419982910156 500,0 C500,276.1419982910156 276.1419982910156,500 0,500 C-276.1419982910156,500 -500,276.1419982910156 -500,0 C-500,-276.1419982910156 -276.1419982910156,-500 0,-500z"></path><g opacity="1" transform="matrix(1,0,0,1,0,0)"><g opacity="1" transform="matrix(1,0,0,1,0,0)"></g></g></g></g><g mask="url(#__lottie_element_378_3)" style="display: block;"><g transform="matrix(0.48207780718803406,-0.5423527956008911,-0.4819931089878082,-0.5227597951889038,500,500)" opacity="1"><g opacity="1" transform="matrix(1,0,0,1,0,0)"><path fill="rgb(188,220,255)" fill-opacity="0.9375963026682606" d=" M0,-500 C276.1419982910156,-500 500,-276.1419982910156 500,0 C500,276.1419982910156 276.1419982910156,500 0,500 C-276.1419982910156,500 -500,276.1419982910156 -500,0 C-500,-276.1419982910156 -276.1419982910156,-500 0,-500z"></path><g opacity="1" transform="matrix(1,0,0,1,0,0)"></g></g></g></g><g mask="url(#__lottie_element_371_3)" style="display: block;"><g transform="matrix(0.22378793358802795,-0.2517684996128082,-0.2237486094236374,-0.24267315864562988,500,500)" opacity="1"><g opacity="1" transform="matrix(1,0,0,1,0,0)"><path fill="rgb(255,255,255)" fill-opacity="0.9375963026682606" d=" M0,-500 C276.1419982910156,-500 500,-276.1419982910156 500,0 C500,276.1419982910156 276.1419982910156,500 0,500 C-276.1419982910156,500 -500,276.1419982910156 -500,0 C-500,-276.1419982910156 -276.1419982910156,-500 0,-500z"></path><g opacity="1" transform="matrix(1,0,0,1,0,0)"></g></g></g></g><g mask="url(#__lottie_element_364_3)" style="display: block;"><g transform="matrix(0.09589084982872009,-0.10788023471832275,-0.09587400406599045,-0.10398297011852264,500,500)" opacity="1"><g opacity="1" transform="matrix(1,0,0,1,0,0)"><path fill="rgb(255,255,255)" fill-opacity="0.9375963026682606" d=" M0,-500 C276.1419982910156,-500 500,-276.1419982910156 500,0 C500,276.1419982910156 276.1419982910156,500 0,500 C-276.1419982910156,500 -500,276.1419982910156 -500,0 C-500,-276.1419982910156 -276.1419982910156,-500 0,-500z"></path><g opacity="1" transform="matrix(1,0,0,1,0,0)"></g></g></g></g><g mask="url(#__lottie_element_356_3)" style="mix-blend-mode: color-burn; display: block;"><g filter="url(#__lottie_element_359)" transform="matrix(-0.2794037461280823,-0.47372639179229736,-0.6000834107398987,0.30366936326026917,500,500)" opacity="0.5"><path fill="url(#__lottie_element_360)" fill-opacity="1" d=" M0,-500 C276.1419982910156,-500 500,-276.1419982910156 500,0 C500,276.1419982910156 276.1419982910156,500 0,500 C-276.1419982910156,500 -500,276.1419982910156 -500,0 C-500,-276.1419982910156 -276.1419982910156,-500 0,-500z"></path><g opacity="1" transform="matrix(1,0,0,1,0,0)"><g opacity="1" transform="matrix(1,0,0,1,0,0)"></g></g></g></g><g mask="url(#__lottie_element_348_3)" style="mix-blend-mode: color-burn; display: block;"><g filter="url(#__lottie_element_351)" transform="matrix(0.4725250005722046,-0.4662196636199951,-0.6316218972206116,-0.38369956612586975,500,500)" opacity="0.5"><path fill="url(#__lottie_element_352)" fill-opacity="1" d=" M0,-500 C276.1419982910156,-500 500,-276.1419982910156 500,0 C500,276.1419982910156 276.1419982910156,500 0,500 C-276.1419982910156,500 -500,276.1419982910156 -500,0 C-500,-276.1419982910156 -276.1419982910156,-500 0,-500z"></path><g opacity="1" transform="matrix(1,0,0,1,0,0)"><g opacity="1" transform="matrix(1,0,0,1,0,0)"></g></g></g></g><g mask="url(#__lottie_element_340_3)" style="mix-blend-mode: color-burn; display: block;"><g filter="url(#__lottie_element_343)" transform="matrix(-0.12850667536258698,-0.778885543346405,0.5190600156784058,-0.10848525166511536,500,500)" opacity="0.5"><path fill="url(#__lottie_element_344)" fill-opacity="1" d=" M0,-500 C276.1419982910156,-500 500,-276.1419982910156 500,0 C500,276.1419982910156 276.1419982910156,500 0,500 C-276.1419982910156,500 -500,276.1419982910156 -500,0 C-500,-276.1419982910156 -276.1419982910156,-500 0,-500z"></path><g opacity="1" transform="matrix(1,0,0,1,0,0)"><g opacity="1" transform="matrix(1,0,0,1,0,0)"></g></g></g></g><g mask="url(#__lottie_element_332_3)" style="mix-blend-mode: color-burn; display: block;"><g filter="url(#__lottie_element_335)" transform="matrix(0.4488295018672943,-0.485533744096756,-0.4571470618247986,-0.5671944618225098,500,500)" opacity="0.5"><path fill="url(#__lottie_element_336)" fill-opacity="1" d=" M0,-500 C276.1419982910156,-500 500,-276.1419982910156 500,0 C500,276.1419982910156 276.1419982910156,500 0,500 C-276.1419982910156,500 -500,276.1419982910156 -500,0 C-500,-276.1419982910156 -276.1419982910156,-500 0,-500z"></path><g opacity="1" transform="matrix(1,0,0,1,0,0)"><g opacity="1" transform="matrix(1,0,0,1,0,0)"></g></g></g></g></g></g></svg>